<?xml version="1.0" standalone="no"?>
<!DOCTYPE svg PUBLIC "-//W3C//DTD SVG 20010904//EN"
 "http://www.w3.org/TR/2001/REC-SVG-20010904/DTD/svg10.dtd">
<svg version="1.0" xmlns="http://www.w3.org/2000/svg"
 width="140.000000pt" height="210.000000pt" viewBox="0 0 140.000000 210.000000"
 preserveAspectRatio="xMidYMid meet">
<metadata>
Created by potrace 1.14, written by Peter Selinger 2001-2017
</metadata>
<g transform="translate(0.000000,210.000000) scale(0.100000,-0.100000)"
fill="#000000" stroke="none">
<path d="M560 2061 c-90 -5 -124 -11 -155 -27 -22 -12 -39 -26 -38 -32 4 -18
-87 -26 -104 -9 -3 4 -17 7 -31 7 -34 0 -23 -21 26 -48 38 -21 42 -27 42 -61
0 -38 -1 -38 -37 -37 -37 1 -38 0 -36 -34 1 -23 9 -40 22 -49 12 -7 21 -19 21
-26 0 -15 -173 -175 -190 -175 -12 0 -44 -40 -37 -46 8 -8 128 67 190 118 43
36 49 38 63 24 18 -18 40 -21 49 -6 11 18 22 10 18 -13 -3 -13 -30 -48 -60
-78 -30 -30 -60 -63 -66 -74 -7 -12 -12 -82 -13 -180 0 -88 1 -127 3 -87 3 59
7 73 18 68 17 -6 23 14 27 97 3 48 1 55 -10 40 -10 -15 -12 -12 -12 18 0 26 9
44 39 77 24 26 44 40 54 36 15 -6 48 39 62 86 9 30 22 40 55 40 14 0 20 -3 13
-8 -6 -4 135 -7 313 -7 178 0 315 -3 306 -7 -9 -5 -2 -5 16 -2 30 5 33 3 38
-25 4 -16 15 -38 27 -48 45 -41 137 -138 137 -146 0 -5 -28 16 -62 47 -34 31
-66 56 -72 56 -6 0 1 -10 15 -23 28 -24 79 -104 104 -163 13 -31 15 -105 15
-475 0 -319 -3 -439 -11 -439 -8 0 -10 -17 -7 -50 3 -27 2 -52 -1 -55 -3 -3
-4 -22 -2 -41 1 -19 -2 -34 -8 -34 -6 0 -11 -6 -11 -13 0 -25 -102 -107 -134
-107 -8 0 -19 -6 -23 -14 -14 -24 -256 -52 -421 -49 -82 2 -184 23 -158 33 18
6 18 7 2 13 -10 4 -35 7 -56 7 -38 0 -69 20 -33 20 11 1 4 8 -18 18 -20 9 -44
23 -53 31 -21 17 -96 168 -96 192 0 21 -26 106 -40 131 -6 10 -10 32 -11 50 0
18 -5 42 -10 53 -6 13 -7 -22 -3 -100 3 -66 12 -131 19 -145 7 -14 18 -47 24
-75 6 -27 24 -68 39 -90 33 -47 116 -100 172 -109 22 -3 40 -10 40 -14 0 -12
117 -34 215 -41 111 -7 229 -2 200 9 -15 5 -4 9 40 14 204 24 297 62 345 143
45 77 50 141 50 663 l0 489 -29 52 c-25 46 -47 77 -117 167 -29 37 -36 90 -16
125 16 27 45 36 57 17 5 -7 11 -8 18 -1 7 5 28 11 47 13 44 4 49 26 25 112
-19 68 -57 115 -93 116 -21 0 -78 27 -135 65 -12 8 -31 15 -42 15 -95 5 -423
6 -515 1z m437 -12 c27 -6 73 -18 103 -27 l55 -17 -45 -5 c-25 -3 -70 -2 -100
2 -84 10 -223 9 -240 -2 -12 -8 -10 -10 10 -10 14 -1 49 -3 78 -6 38 -3 51 -1
46 7 -5 8 -1 8 14 0 11 -6 40 -11 64 -12 37 0 40 -2 20 -10 -30 -11 -357 -3
-380 10 -14 9 -11 10 16 11 17 0 32 5 32 11 0 8 -30 10 -102 5 -102 -5 -148
-1 -148 14 0 12 60 19 215 26 77 3 141 7 144 10 9 8 172 4 218 -7z m-230 -245
c166 -1 307 -5 313 -9 14 -8 -16 -45 -37 -45 -16 0 -17 -17 0 -23 6 -2 -12 -7
-40 -11 -29 -5 -53 -13 -53 -18 0 -26 -341 5 -475 42 l-30 8 30 1 c27 1 28 3
10 13 -50 27 -65 40 -59 49 3 6 13 7 23 3 9 -4 152 -9 318 -10z"/>
</g>
</svg>
